# xmcd
#
# Track frame offsets:
#	150
#	16292
#	31777
#	52984
#	72117
#	89210
#	104227
#	122971
#	135603
#	156626
#	181549
#	195274
#	215231
#	248121
#	257856
#	281401
#	301623
#	313890
#
# Disc length: 4475
#
# Revision: 1
# Processed by: cddbd v1.5.1PL0 Copyright (c) Steve Scherf et al.
# Submitted via: audiograbber 1.83.01
# Normalized: r0:DSETVAR1
#
DISCID=07117912
DTITLE=Various Artist - 100% Blues - CD2
DYEAR=1900
DGENRE=Blues
TTITLE0=John Mayall and The Bluesbreakers - Ready To Ride
TTITLE1=Jimi Hendrix - Bleeding Heart
TTITLE2=Koko Taylor - Mother Nature
TTITLE3=Friendship Bay - In This World Alone
TTITLE4=Howlin' Wolf and E. Clapton and S. Winwood &B. Nyman and C. Watts - The Red Rooster
TTITLE5=David Castle - Istambul Blues
TTITLE6=The Fabulous Thunderbirds - It Takes A Big Man To Cry
TTITLE7=Bo Diddley - I'm A Man
TTITLE8=John Hiatt - Alone In The Dark
TTITLE9=John Lee Hooker and Santana - The Heater
TTITLE10=Willie Dixon - Walkin' The Blues
TTITLE11=Notting Hillbillies - Your Own Sweet Way
TTITLE12=Albert King - I'll Play The Blues For You
TTITLE13=Chuck Berry - Worried Life Blues
TTITLE14=Joe Walsh - Rocky Mountain Way
TTITLE15=Creedence Clearwater Revival - I Put A Spell On You
TTITLE16=Jimmy Reed - Honest I Do
TTITLE17=Johnny Copeland - Ever Dog's Got His Day
EXTD=
EXTT0=
EXTT1=
EXTT2=
EXTT3=
EXTT4=
EXTT5=
EXTT6=
EXTT7=
EXTT8=
EXTT9=
EXTT10=
EXTT11=
EXTT12=
EXTT13=
EXTT14=
EXTT15=
EXTT16=
EXTT17=
PLAYORDER=
